<svg id="Layer_1" data-name="Layer 1" xmlns="http://www.w3.org/2000/svg" viewBox="0 0 915.6 904.94"><defs><style>.cls-1{fill:#3fa9f5;}</style></defs><path class="cls-1" d="M215.5,587.5c28,78-15,148-67,215-53.15,68.48,16.75,224.5,163,176s142.46-104,247-106c107-2,101,43,175,47s122-43,127-100c2.45-28-9-86,49-121,31.68-19.12,114-33,98-121-9.61-52.85-7-89,3.65-203.24,8-86.06-62.12-189.39-125.65-210.76-113-38-211.79,26.53-278-27-94-76-205.45-63-252-13s-38.07,121-48,149c-22,62-82.27,43.59-114,114C162.58,455.11,199.23,542.17,215.5,587.5Z" transform="translate(-96.19 -82.75)"/><circle cx="652.53" cy="5.72" r="5.54"/><circle cx="670.84" cy="5.96" r="5.54"/><circle cx="689.37" cy="5.96" r="5.54"/><circle cx="707.89" cy="5.96" r="5.54"/><circle cx="726.42" cy="5.96" r="5.54"/><circle cx="744.95" cy="5.96" r="5.54"/><circle cx="763.47" cy="5.96" r="5.54"/><circle cx="782" cy="5.96" r="5.54"/><circle cx="800.52" cy="5.96" r="5.54"/><circle cx="818.9" cy="5.61" r="5.54"/><circle cx="837.27" cy="6.1" r="5.54"/><circle cx="610.16" cy="24.78" r="5.54"/><circle cx="628.47" cy="25.01" r="5.54"/><circle cx="646.99" cy="25.01" r="5.54"/><circle cx="665.52" cy="25.01" r="5.54"/><circle cx="684.05" cy="25.01" r="5.54"/><circle cx="702.57" cy="25.01" r="5.54"/><circle cx="721.1" cy="25.01" r="5.54"/><circle cx="739.63" cy="25.01" r="5.54"/><circle cx="758.15" cy="25.01" r="5.54"/><circle cx="776.53" cy="24.67" r="5.54"/><circle cx="794.9" cy="25.15" r="5.54"/><circle cx="639.16" cy="44.78" r="5.54"/><circle cx="657.47" cy="45.01" r="5.54"/><circle cx="675.99" cy="45.01" r="5.54"/><circle cx="694.52" cy="45.01" r="5.54"/><circle cx="713.05" cy="45.01" r="5.54"/><circle cx="731.57" cy="45.01" r="5.54"/><circle cx="750.1" cy="45.01" r="5.54"/><circle cx="768.63" cy="45.01" r="5.54"/><circle cx="787.15" cy="45.01" r="5.54"/><circle cx="805.53" cy="44.67" r="5.54"/><circle cx="823.9" cy="45.15" r="5.54"/><circle cx="47.92" cy="471.8" r="5.54"/><circle cx="66.23" cy="472.04" r="5.54"/><circle cx="84.75" cy="472.04" r="5.54"/><circle cx="103.28" cy="472.04" r="5.54"/><circle cx="121.8" cy="472.04" r="5.54"/><circle cx="140.33" cy="472.04" r="5.54"/><circle cx="158.86" cy="472.04" r="5.54"/><circle cx="177.38" cy="472.04" r="5.54"/><circle cx="195.91" cy="472.04" r="5.54"/><circle cx="214.28" cy="471.69" r="5.54"/><circle cx="232.66" cy="472.18" r="5.54"/><circle cx="5.54" cy="490.86" r="5.54"/><circle cx="23.85" cy="491.09" r="5.54"/><circle cx="42.38" cy="491.09" r="5.54"/><circle cx="60.91" cy="491.09" r="5.54"/><circle cx="79.43" cy="491.09" r="5.54"/><circle cx="97.96" cy="491.09" r="5.54"/><circle cx="116.48" cy="491.09" r="5.54"/><circle cx="135.01" cy="491.09" r="5.54"/><circle cx="153.54" cy="491.09" r="5.54"/><circle cx="171.91" cy="490.75" r="5.54"/><circle cx="190.28" cy="491.23" r="5.54"/><circle cx="34.54" cy="510.86" r="5.54"/><circle cx="52.85" cy="511.09" r="5.54"/><circle cx="71.38" cy="511.09" r="5.54"/><circle cx="89.91" cy="511.09" r="5.54"/><circle cx="108.43" cy="511.09" r="5.54"/><circle cx="126.96" cy="511.09" r="5.54"/><circle cx="145.48" cy="511.09" r="5.54"/><circle cx="164.01" cy="511.09" r="5.54"/><circle cx="182.54" cy="511.09" r="5.54"/><circle cx="200.91" cy="510.75" r="5.54"/><circle cx="219.28" cy="511.23" r="5.54"/><circle cx="35.09" cy="530.51" r="5.54"/><circle cx="53.4" cy="530.74" r="5.54"/><circle cx="71.92" cy="530.74" r="5.54"/><circle cx="90.45" cy="530.74" r="5.54"/><circle cx="108.97" cy="530.74" r="5.54"/><circle cx="127.5" cy="530.74" r="5.54"/><circle cx="146.03" cy="530.74" r="5.54"/><circle cx="164.55" cy="530.74" r="5.54"/><circle cx="183.08" cy="530.74" r="5.54"/><circle cx="201.45" cy="530.4" r="5.54"/><circle cx="219.83" cy="530.88" r="5.54"/><circle cx="53.8" cy="550.53" r="5.54"/><circle cx="72.11" cy="550.76" r="5.54"/><circle cx="90.64" cy="550.76" r="5.54"/><circle cx="109.16" cy="550.76" r="5.54"/><circle cx="127.69" cy="550.76" r="5.54"/><circle cx="146.22" cy="550.76" r="5.54"/><circle cx="164.74" cy="550.76" r="5.54"/><circle cx="183.27" cy="550.76" r="5.54"/><circle cx="201.79" cy="550.76" r="5.54"/><circle cx="220.17" cy="550.42" r="5.54"/><circle cx="238.54" cy="550.9" r="5.54"/></svg>