<svg id="Layer_1" data-name="Layer 1" xmlns="http://www.w3.org/2000/svg" viewBox="0 0 2560 1440.01"><defs><style>.cls-1{fill:#10294c;}.cls-2{fill:#44afe0;}</style></defs><rect class="cls-1" y="0.01" width="2560" height="1440"/><path class="cls-2" d="M1724.43,0s15.82,51.93,20,79.23c10.29,66.86-200.57,87.43-231.43,164.58s123.43,164.57,66.86,210.85-231.43,72-252,200.58,87.43,87.42,180,354.85,185.14,164.58,267.43,180c49.39,9.26,137.39,61.55,214.28,132,35.2,32.26,85.39,116.7,85.39,116.7l184.85,1.21s-184.12-356.64-124.52-501.91c82.28-200.57,149.14-146.85,226.28-217.43s-123.15-185.15-113.14-302c15.43-180,86.47-170.37,129.58-327.43,9-32.79-9.09-91.24-9.09-91.24Z" transform="translate(0 0.01)"/></svg>