<svg id="Layer_1" data-name="Layer 1" xmlns="http://www.w3.org/2000/svg" viewBox="0 0 927.03 897.13"><defs><style>.cls-1{fill:#3fa9f5;}</style></defs><path class="cls-1" d="M192.5,602.5c28,78-15,148-67,215-53.15,68.48,16.75,224.5,163,176,90.11-29.88,45.79-80.1,85.5-94.5,91-33,83,69,167,34,115-47.92,95.5-2.5,169.5,1.5s122-43,127-100c2.45-28-9-86,49-121,31.68-19.12,114-33,98-121-9.61-52.85,20.85-68.26,31.5-182.5,3.55-38.07-77.17-74.49-112-123-43.92-61.16-47.57-132.08-83-144-113-38-167,46.14-223-18-41.86-47.95-114.52,8.14-163,6-64.74-2.85-133.59-19.13-159,21-36.55,57.72-21.07,122-31,150-22,62-100.27,59.59-132,130C82.08,500.61,176.23,557.17,192.5,602.5Z" transform="translate(-89.09 -105.55)"/><circle cx="588.63" cy="792.92" r="5.54"/><circle cx="606.94" cy="793.15" r="5.54"/><circle cx="625.47" cy="793.15" r="5.54"/><circle cx="643.99" cy="793.15" r="5.54"/><circle cx="662.52" cy="793.15" r="5.54"/><circle cx="681.04" cy="793.15" r="5.54"/><circle cx="699.57" cy="793.15" r="5.54"/><circle cx="718.1" cy="793.15" r="5.54"/><circle cx="736.62" cy="793.15" r="5.54"/><circle cx="755" cy="792.81" r="5.54"/><circle cx="773.37" cy="793.29" r="5.54"/><circle cx="546.26" cy="811.97" r="5.54"/><circle cx="564.57" cy="812.21" r="5.54"/><circle cx="583.09" cy="812.21" r="5.54"/><circle cx="601.62" cy="812.21" r="5.54"/><circle cx="620.15" cy="812.21" r="5.54"/><circle cx="638.67" cy="812.21" r="5.54"/><circle cx="657.2" cy="812.21" r="5.54"/><circle cx="675.72" cy="812.21" r="5.54"/><circle cx="694.25" cy="812.21" r="5.54"/><circle cx="712.62" cy="811.86" r="5.54"/><circle cx="731" cy="812.35" r="5.54"/><circle cx="575.26" cy="831.97" r="5.54"/><circle cx="593.57" cy="832.21" r="5.54"/><circle cx="612.09" cy="832.21" r="5.54"/><circle cx="630.62" cy="832.21" r="5.54"/><circle cx="649.15" cy="832.21" r="5.54"/><circle cx="667.67" cy="832.21" r="5.54"/><circle cx="686.2" cy="832.21" r="5.54"/><circle cx="704.72" cy="832.21" r="5.54"/><circle cx="723.25" cy="832.21" r="5.54"/><circle cx="741.62" cy="831.86" r="5.54"/><circle cx="760" cy="832.35" r="5.54"/><circle cx="169.01" cy="70" r="5.54"/><circle cx="187.32" cy="70.23" r="5.54"/><circle cx="205.85" cy="70.23" r="5.54"/><circle cx="224.38" cy="70.23" r="5.54"/><circle cx="242.9" cy="70.23" r="5.54"/><circle cx="261.43" cy="70.23" r="5.54"/><circle cx="279.96" cy="70.23" r="5.54"/><circle cx="298.48" cy="70.23" r="5.54"/><circle cx="317.01" cy="70.23" r="5.54"/><circle cx="335.38" cy="69.89" r="5.54"/><circle cx="353.76" cy="70.37" r="5.54"/><circle cx="126.64" cy="89.05" r="5.54"/><circle cx="144.95" cy="89.29" r="5.54"/><circle cx="163.48" cy="89.29" r="5.54"/><circle cx="182" cy="89.29" r="5.54"/><circle cx="200.53" cy="89.29" r="5.54"/><circle cx="219.06" cy="89.29" r="5.54"/><circle cx="237.58" cy="89.29" r="5.54"/><circle cx="256.11" cy="89.29" r="5.54"/><circle cx="274.64" cy="89.29" r="5.54"/><circle cx="293.01" cy="88.95" r="5.54"/><circle cx="311.38" cy="89.43" r="5.54"/><circle cx="155.64" cy="109.05" r="5.54"/><circle cx="173.95" cy="109.29" r="5.54"/><circle cx="192.48" cy="109.29" r="5.54"/><circle cx="211" cy="109.29" r="5.54"/><circle cx="229.53" cy="109.29" r="5.54"/><circle cx="248.06" cy="109.29" r="5.54"/><circle cx="266.58" cy="109.29" r="5.54"/><circle cx="285.11" cy="109.29" r="5.54"/><circle cx="303.64" cy="109.29" r="5.54"/><circle cx="322.01" cy="108.95" r="5.54"/><circle cx="340.38" cy="109.43" r="5.54"/><circle cx="156.19" cy="128.71" r="5.54"/><circle cx="174.5" cy="128.94" r="5.54"/><circle cx="193.02" cy="128.94" r="5.54"/><circle cx="211.55" cy="128.94" r="5.54"/><circle cx="230.07" cy="128.94" r="5.54"/><circle cx="248.6" cy="128.94" r="5.54"/><circle cx="267.13" cy="128.94" r="5.54"/><circle cx="285.65" cy="128.94" r="5.54"/><circle cx="304.18" cy="128.94" r="5.54"/><circle cx="322.55" cy="128.6" r="5.54"/><circle cx="340.93" cy="129.08" r="5.54"/><circle cx="60.9" cy="527.72" r="5.54"/><circle cx="79.21" cy="527.96" r="5.54"/><circle cx="97.74" cy="527.96" r="5.54"/><circle cx="116.26" cy="527.96" r="5.54"/><circle cx="134.79" cy="527.96" r="5.54"/><circle cx="153.31" cy="527.96" r="5.54"/><circle cx="171.84" cy="527.96" r="5.54"/><circle cx="190.37" cy="527.96" r="5.54"/><circle cx="208.89" cy="527.96" r="5.54"/><circle cx="227.27" cy="527.61" r="5.54"/><circle cx="245.64" cy="528.1" r="5.54"/><circle cx="36.54" cy="547.81" r="5.54"/><circle cx="54.85" cy="548.05" r="5.54"/><circle cx="73.38" cy="548.05" r="5.54"/><circle cx="91.91" cy="548.05" r="5.54"/><circle cx="110.43" cy="548.05" r="5.54"/><circle cx="128.96" cy="548.05" r="5.54"/><circle cx="147.48" cy="548.05" r="5.54"/><circle cx="166.01" cy="548.05" r="5.54"/><circle cx="184.54" cy="548.05" r="5.54"/><circle cx="202.91" cy="547.7" r="5.54"/><circle cx="221.28" cy="548.19" r="5.54"/><circle cx="5.54" cy="567.81" r="5.54"/><circle cx="23.85" cy="568.05" r="5.54"/><circle cx="42.38" cy="568.05" r="5.54"/><circle cx="60.91" cy="568.05" r="5.54"/><circle cx="79.43" cy="568.05" r="5.54"/><circle cx="97.96" cy="568.05" r="5.54"/><circle cx="116.48" cy="568.05" r="5.54"/><circle cx="135.01" cy="568.05" r="5.54"/><circle cx="153.54" cy="568.05" r="5.54"/><circle cx="171.91" cy="567.7" r="5.54"/><circle cx="190.28" cy="568.19" r="5.54"/></svg>