<svg id="Layer_1" data-name="Layer 1" xmlns="http://www.w3.org/2000/svg" viewBox="0 0 934.65 950.97"><defs><style>.cls-1{fill:#3fa9f5;}</style></defs><path class="cls-1" d="M476.78,166.19c-78.71,25.95-147.56-18.86-213.18-72.6C196.54,38.68,38.74,104.47,83.4,251.94,98.16,300.66,175,376.29,184.31,467.15c8,78.58-50.21,173.93-53,208.19-5.94,73.87,182.85,122.82,216.32,181.71,18.28,32.17,30,114.83,118.4,101.13C519.15,950,556.78,827.36,670.7,841c16.69,2,228.37,93.07,304-36.06C1016.2,734.21,896.39,623.33,893,540c-4.5-110.68,95.76-191.57,71.17-248.52C932.13,217.27,819,87.84,698,74,604.31,63.28,496.74,159.61,476.78,166.19Z" transform="translate(-48.8 -73.17)"/><circle cx="47.92" cy="767.3" r="5.54"/><circle cx="66.23" cy="767.54" r="5.54"/><circle cx="84.75" cy="767.54" r="5.54"/><circle cx="103.28" cy="767.54" r="5.54"/><circle cx="121.8" cy="767.54" r="5.54"/><circle cx="140.33" cy="767.54" r="5.54"/><circle cx="158.86" cy="767.54" r="5.54"/><circle cx="177.38" cy="767.54" r="5.54"/><circle cx="195.91" cy="767.54" r="5.54"/><circle cx="214.28" cy="767.19" r="5.54"/><circle cx="232.66" cy="767.68" r="5.54"/><circle cx="5.54" cy="786.36" r="5.54"/><circle cx="23.85" cy="786.59" r="5.54"/><circle cx="42.38" cy="786.59" r="5.54"/><circle cx="60.91" cy="786.59" r="5.54"/><circle cx="79.43" cy="786.59" r="5.54"/><circle cx="97.96" cy="786.59" r="5.54"/><circle cx="116.48" cy="786.59" r="5.54"/><circle cx="135.01" cy="786.59" r="5.54"/><circle cx="153.54" cy="786.59" r="5.54"/><circle cx="171.91" cy="786.25" r="5.54"/><circle cx="190.28" cy="786.73" r="5.54"/><circle cx="34.54" cy="806.36" r="5.54"/><circle cx="52.85" cy="806.59" r="5.54"/><circle cx="71.38" cy="806.59" r="5.54"/><circle cx="89.91" cy="806.59" r="5.54"/><circle cx="108.43" cy="806.59" r="5.54"/><circle cx="126.96" cy="806.59" r="5.54"/><circle cx="145.48" cy="806.59" r="5.54"/><circle cx="164.01" cy="806.59" r="5.54"/><circle cx="182.54" cy="806.59" r="5.54"/><circle cx="200.91" cy="806.25" r="5.54"/><circle cx="219.28" cy="806.73" r="5.54"/><circle cx="789.97" cy="760.69" r="5.54"/><circle cx="789.74" cy="779" r="5.54"/><circle cx="789.74" cy="797.52" r="5.54"/><circle cx="789.74" cy="816.05" r="5.54"/><circle cx="789.74" cy="834.58" r="5.54"/><circle cx="789.74" cy="853.1" r="5.54"/><circle cx="789.74" cy="871.63" r="5.54"/><circle cx="789.74" cy="890.16" r="5.54"/><circle cx="789.74" cy="908.68" r="5.54"/><circle cx="790.08" cy="927.05" r="5.54"/><circle cx="789.6" cy="945.43" r="5.54"/><circle cx="770.91" cy="718.31" r="5.54"/><circle cx="770.68" cy="736.62" r="5.54"/><circle cx="770.68" cy="755.15" r="5.54"/><circle cx="770.68" cy="773.68" r="5.54"/><circle cx="770.68" cy="792.2" r="5.54"/><circle cx="770.68" cy="810.73" r="5.54"/><circle cx="770.68" cy="829.26" r="5.54"/><circle cx="770.68" cy="847.78" r="5.54"/><circle cx="770.68" cy="866.31" r="5.54"/><circle cx="771.02" cy="884.68" r="5.54"/><circle cx="770.54" cy="903.06" r="5.54"/><circle cx="750.91" cy="747.31" r="5.54"/><circle cx="750.68" cy="765.62" r="5.54"/><circle cx="750.68" cy="784.15" r="5.54"/><circle cx="750.68" cy="802.68" r="5.54"/><circle cx="750.68" cy="821.2" r="5.54"/><circle cx="750.68" cy="839.73" r="5.54"/><circle cx="750.68" cy="858.26" r="5.54"/><circle cx="750.68" cy="876.78" r="5.54"/><circle cx="750.68" cy="895.31" r="5.54"/><circle cx="751.02" cy="913.68" r="5.54"/><circle cx="750.54" cy="932.06" r="5.54"/><circle cx="731.26" cy="747.86" r="5.54"/><circle cx="731.03" cy="766.17" r="5.54"/><circle cx="731.03" cy="784.69" r="5.54"/><circle cx="731.03" cy="803.22" r="5.54"/><circle cx="731.03" cy="821.75" r="5.54"/><circle cx="731.03" cy="840.27" r="5.54"/><circle cx="731.03" cy="858.8" r="5.54"/><circle cx="731.03" cy="877.33" r="5.54"/><circle cx="731.03" cy="895.85" r="5.54"/><circle cx="731.37" cy="914.23" r="5.54"/><circle cx="730.89" cy="932.6" r="5.54"/><circle cx="138.19" cy="8.11" r="5.54"/><circle cx="156.5" cy="8.34" r="5.54"/><circle cx="175.02" cy="8.34" r="5.54"/><circle cx="193.55" cy="8.34" r="5.54"/><circle cx="212.07" cy="8.34" r="5.54"/><circle cx="230.6" cy="8.34" r="5.54"/><circle cx="249.13" cy="8.34" r="5.54"/><circle cx="267.65" cy="8.34" r="5.54"/><circle cx="286.18" cy="8.34" r="5.54"/><circle cx="304.55" cy="8" r="5.54"/><circle cx="322.93" cy="8.48" r="5.54"/><circle cx="113.83" cy="28.2" r="5.54"/><circle cx="132.14" cy="28.43" r="5.54"/><circle cx="150.66" cy="28.43" r="5.54"/><circle cx="169.19" cy="28.43" r="5.54"/><circle cx="187.72" cy="28.43" r="5.54"/><circle cx="206.24" cy="28.43" r="5.54"/><circle cx="224.77" cy="28.43" r="5.54"/><circle cx="243.3" cy="28.43" r="5.54"/><circle cx="261.82" cy="28.43" r="5.54"/><circle cx="280.2" cy="28.09" r="5.54"/><circle cx="298.57" cy="28.57" r="5.54"/><circle cx="82.83" cy="48.2" r="5.54"/><circle cx="101.14" cy="48.43" r="5.54"/><circle cx="119.66" cy="48.43" r="5.54"/><circle cx="138.19" cy="48.43" r="5.54"/><circle cx="156.72" cy="48.43" r="5.54"/><circle cx="175.24" cy="48.43" r="5.54"/><circle cx="193.77" cy="48.43" r="5.54"/><circle cx="212.3" cy="48.43" r="5.54"/><circle cx="230.82" cy="48.43" r="5.54"/><circle cx="249.2" cy="48.09" r="5.54"/><circle cx="267.57" cy="48.57" r="5.54"/></svg>