<svg id="Layer_1" data-name="Layer 1" xmlns="http://www.w3.org/2000/svg" viewBox="0 0 898.85 959.74"><defs><style>.cls-1{fill:#3fa9f5;}</style></defs><path class="cls-1" d="M192.5,602.5c28,78-15,148-67,215-53.15,68.48,16.75,224.5,163,176,48.32-16,121.92-94.84,212.5-106.5,78.35-10.09,175.18,45.64,209.5,47.5,74,4,118-186,176-221,31.68-19.12,114-33,98-121C974.89,539.65,851.35,505.24,862,391c1.56-16.73,87.07-230.72-44-303C650.86-4.17,403.67,66.3,305,112c-130.16,60.28,86.49,324.07,73,354C347.08,534.61,176.23,557.17,192.5,602.5Z" transform="translate(-96.15 -42.94)"/><circle cx="708.57" cy="288.53" r="5.54"/><circle cx="726.88" cy="288.76" r="5.54"/><circle cx="745.4" cy="288.76" r="5.54"/><circle cx="763.93" cy="288.76" r="5.54"/><circle cx="782.46" cy="288.76" r="5.54"/><circle cx="800.98" cy="288.76" r="5.54"/><circle cx="819.51" cy="288.76" r="5.54"/><circle cx="838.04" cy="288.76" r="5.54"/><circle cx="856.56" cy="288.76" r="5.54"/><circle cx="874.94" cy="288.42" r="5.54"/><circle cx="893.31" cy="288.9" r="5.54"/><circle cx="666.2" cy="307.58" r="5.54"/><circle cx="684.51" cy="307.82" r="5.54"/><circle cx="703.03" cy="307.82" r="5.54"/><circle cx="721.56" cy="307.82" r="5.54"/><circle cx="740.08" cy="307.82" r="5.54"/><circle cx="758.61" cy="307.82" r="5.54"/><circle cx="777.14" cy="307.82" r="5.54"/><circle cx="795.66" cy="307.82" r="5.54"/><circle cx="814.19" cy="307.82" r="5.54"/><circle cx="832.56" cy="307.47" r="5.54"/><circle cx="850.94" cy="307.96" r="5.54"/><circle cx="695.2" cy="327.58" r="5.54"/><circle cx="713.51" cy="327.82" r="5.54"/><circle cx="732.03" cy="327.82" r="5.54"/><circle cx="750.56" cy="327.82" r="5.54"/><circle cx="769.08" cy="327.82" r="5.54"/><circle cx="787.61" cy="327.82" r="5.54"/><circle cx="806.14" cy="327.82" r="5.54"/><circle cx="824.66" cy="327.82" r="5.54"/><circle cx="843.19" cy="327.82" r="5.54"/><circle cx="861.56" cy="327.47" r="5.54"/><circle cx="879.94" cy="327.96" r="5.54"/><circle cx="64.62" cy="92.91" r="5.54"/><circle cx="64.39" cy="111.22" r="5.54"/><circle cx="64.39" cy="129.75" r="5.54"/><circle cx="64.39" cy="148.27" r="5.54"/><circle cx="64.39" cy="166.8" r="5.54"/><circle cx="64.39" cy="185.33" r="5.54"/><circle cx="64.39" cy="203.85" r="5.54"/><circle cx="64.39" cy="222.38" r="5.54"/><circle cx="64.39" cy="240.9" r="5.54"/><circle cx="64.73" cy="259.28" r="5.54"/><circle cx="64.25" cy="277.65" r="5.54"/><circle cx="45.57" cy="50.54" r="5.54"/><circle cx="45.33" cy="68.85" r="5.54"/><circle cx="45.33" cy="87.37" r="5.54"/><circle cx="45.33" cy="105.9" r="5.54"/><circle cx="45.33" cy="124.43" r="5.54"/><circle cx="45.33" cy="142.95" r="5.54"/><circle cx="45.33" cy="161.48" r="5.54"/><circle cx="45.33" cy="180.01" r="5.54"/><circle cx="45.33" cy="198.53" r="5.54"/><circle cx="45.68" cy="216.91" r="5.54"/><circle cx="45.19" cy="235.28" r="5.54"/><circle cx="25.57" cy="79.54" r="5.54"/><circle cx="25.33" cy="97.85" r="5.54"/><circle cx="25.33" cy="116.37" r="5.54"/><circle cx="25.33" cy="134.9" r="5.54"/><circle cx="25.33" cy="153.43" r="5.54"/><circle cx="25.33" cy="171.95" r="5.54"/><circle cx="25.33" cy="190.48" r="5.54"/><circle cx="25.33" cy="209.01" r="5.54"/><circle cx="25.33" cy="227.53" r="5.54"/><circle cx="25.68" cy="245.91" r="5.54"/><circle cx="25.19" cy="264.28" r="5.54"/><circle cx="5.92" cy="80.08" r="5.54"/><circle cx="5.68" cy="98.39" r="5.54"/><circle cx="5.68" cy="116.92" r="5.54"/><circle cx="5.68" cy="135.44" r="5.54"/><circle cx="5.68" cy="153.97" r="5.54"/><circle cx="5.68" cy="172.5" r="5.54"/><circle cx="5.68" cy="191.02" r="5.54"/><circle cx="5.68" cy="209.55" r="5.54"/><circle cx="5.68" cy="228.08" r="5.54"/><circle cx="6.03" cy="246.45" r="5.54"/><circle cx="5.54" cy="264.82" r="5.54"/><circle cx="304.84" cy="896.33" r="5.54"/><circle cx="323.15" cy="896.57" r="5.54"/><circle cx="341.67" cy="896.57" r="5.54"/><circle cx="360.2" cy="896.57" r="5.54"/><circle cx="378.73" cy="896.57" r="5.54"/><circle cx="397.25" cy="896.57" r="5.54"/><circle cx="415.78" cy="896.57" r="5.54"/><circle cx="434.31" cy="896.57" r="5.54"/><circle cx="452.83" cy="896.57" r="5.54"/><circle cx="471.21" cy="896.22" r="5.54"/><circle cx="489.58" cy="896.71" r="5.54"/><circle cx="280.48" cy="916.42" r="5.54"/><circle cx="298.79" cy="916.66" r="5.54"/><circle cx="317.32" cy="916.66" r="5.54"/><circle cx="335.84" cy="916.66" r="5.54"/><circle cx="354.37" cy="916.66" r="5.54"/><circle cx="372.9" cy="916.66" r="5.54"/><circle cx="391.42" cy="916.66" r="5.54"/><circle cx="409.95" cy="916.66" r="5.54"/><circle cx="428.48" cy="916.66" r="5.54"/><circle cx="446.85" cy="916.31" r="5.54"/><circle cx="465.22" cy="916.8" r="5.54"/><circle cx="249.48" cy="936.42" r="5.54"/><circle cx="267.79" cy="936.66" r="5.54"/><circle cx="286.32" cy="936.66" r="5.54"/><circle cx="304.84" cy="936.66" r="5.54"/><circle cx="323.37" cy="936.66" r="5.54"/><circle cx="341.9" cy="936.66" r="5.54"/><circle cx="360.42" cy="936.66" r="5.54"/><circle cx="378.95" cy="936.66" r="5.54"/><circle cx="397.48" cy="936.66" r="5.54"/><circle cx="415.85" cy="936.31" r="5.54"/><circle cx="434.22" cy="936.8" r="5.54"/></svg>